#!OML:ASF G:\JayActor3\Patient Classification 1\Patient 1\Session 5\male.ASF
:FULLY-SPECIFIED
:DEGREES
544
root 11.8745 17.1479 -6.04418 485.857 -83.6131 -485.757
lowerback -0.0688843 1.32328 7.97139
upperback 0.0810687 1.75121 -0.757287
thorax 0.38614 0.892916 -5.24885
lowerneck -5.71365 -0.230763 2.35353
upperneck 7.51133 -0.705933 1.71786
head 3.4295 -0.228055 0.115406
rclavicle -1.0958e-014 -3.18055e-015
rhumerus -31.1398 -5.58687 -88.8296
rradius 24.1793
rwrist 6.23593
rhand -18.808 -8.26487
rfingers 7.12502
rthumb 7.49044 -38.1123
lclavicle -1.0958e-014 -3.18055e-015
lhumerus -40.8461 15.0246 74.3256
lradius 21.7328
lwrist 13.3269
lhand -17.3611 12.9833
lfingers 7.12502
lthumb 8.88693 42.7762
rfemur 20.9064 1.23495 27.569
rtibia 17.6822
rfoot 18.8332 -15.292
rtoes 7.77704
lfemur -23.3863 12.6192 -21.4509
ltibia 30.0445
lfoot 3.00257 -2.84592
ltoes -20.5068
545
root 11.6957 17.1544 -6.04283 488.859 -83.9469 -488.866
lowerback -0.0636344 1.31068 7.41289
upperback 0.0440202 1.73894 -0.883763
thorax 0.329986 0.883304 -5.06643
lowerneck -5.75986 -0.229223 2.37636
upperneck 7.72248 -0.715969 1.72792
head 3.51209 -0.229626 0.114237
rclavicle -4.11779e-015 -1.70955e-014
rhumerus -31.378 -5.85413 -88.7305
rradius 24.1049
rwrist 6.25839
rhand -18.9337 -8.15003
rfingers 7.12502
rthumb 7.36913 -38.0017
lclavicle -4.11779e-015 -1.70955e-014
lhumerus -40.8163 15.2084 74.1859
lradius 21.556
lwrist 13.1431
lhand -17.3583 13.0063
lfingers 7.12502
lthumb 8.88963 42.7991
rfemur 19.9548 1.50563 26.995
rtibia 20.1403
rfoot 19.8948 -15.5572
rtoes 8.28424
lfemur -22.6138 12.5268 -21.7996
ltibia 30.2066
lfoot 2.29094 -2.86186
ltoes -20.3155
546
root 11.5225 17.163 -6.04262 491.794 -84.2561 -491.879
lowerback -0.0499534 1.29132 6.86719
upperback -0.00322331 1.71755 -0.990389
thorax 0.257424 0.868379 -4.87071
lowerneck -5.81291 -0.228318 2.39191
upperneck 7.92884 -0.726702 1.7415
head 3.59468 -0.231585 0.115454
rclavicle -2.01541e-014 -1.19271e-014
rhumerus -31.6144 -6.12675 -88.608
rradius 24.0471
rwrist 6.29933
rhand -19.0245 -8.05104
rfingers 7.12502
rthumb 7.28149 -37.9058
lclavicle -2.01541e-014 -1.19271e-014
lhumerus -40.7631 15.3855 74.0782
lradius 21.4107
lwrist 13.0064
lhand -17.3705 13.0166
lfingers 7.12502
lthumb 8.87781 42.8099
rfemur 18.9135 1.75191 26.4663
rtibia 22.6161
rfoot 21.0353 -15.7752
rtoes 8.73862
lfemur -21.909 12.5166 -22.1285
ltibia 30.3446
lfoot 1.69321 -2.97831
ltoes -20.2971
547
root 11.3556 17.1736 -6.04412 494.495 -84.5369 -494.633
lowerback -0.0200188 1.26267 6.34386
upperback -0.0569454 1.68396 -1.07363
thorax 0.167917 0.846884 -4.66368
lowerneck -5.86045 -0.225955 2.40341
upperneck 8.11226 -0.734502 1.75755
head 3.66845 -0.232368 0.118347
rclavicle 1.30561e-014 -1.39149e-014
rhumerus -31.839 -6.3862 -88.4737
rradius 23.9962
rwrist 6.34854
rhand -19.0701 -7.98224
rfingers 7.12502
rthumb 7.23748 -37.8385
lclavicle 1.30561e-014 -1.39149e-014
lhumerus -40.6865 15.5334 74.0142
lradius 21.3135
lwrist 12.9242
lhand -17.375 13.0137
lfingers 7.12502
lthumb 8.87349 42.8071
rfemur 17.7956 2.00036 26.0159
rtibia 25.0821
rfoot 22.241 -15.9777
rtoes 9.1022
lfemur -21.2809 12.5973 -22.423
ltibia 30.4709
lfoot 1.22573 -3.18334
ltoes -20.4446
548
root 11.1954 17.1862 -6.04762 496.828 -84.7862 -497.001
lowerback 0.0323916 1.22505 5.85305
upperback -0.109731 1.63861 -1.13236
thorax 0.0662085 0.819568 -4.44998
lowerneck -5.89926 -0.221216 2.41181
upperneck 8.25767 -0.737617 1.77707
head 3.72737 -0.231209 0.123175
rclavicle 5.44173e-015 2.78299e-015
rhumerus -32.04 -6.63491 -88.3343
rradius 23.9467
rwrist 6.40046
rhand -19.0739 -7.94653
rfingers 7.12502
rthumb 7.23383 -37.8029
lclavicle 5.44173e-015 2.78299e-015
lhumerus -40.5777 15.6329 74.0061
lradius 21.2696
lwrist 12.9186
lhand -17.3728 12.9942
lfingers 7.12502
lthumb 8.87559 42.7875
rfemur 16.6147 2.27483 25.6666
rtibia 27.5169
rfoot 23.486 -16.1663
rtoes 9.15068
lfemur -20.7172 12.7325 -22.6625
ltibia 30.5922
lfoot 0.88338 -3.43221
ltoes -20.6733
549
root 11.0418 17.2005 -6.05261 498.84 -85.0116 -499.041
lowerback 0.111387 1.17958 5.39431
upperback -0.157929 1.58303 -1.17263
thorax -0.0456938 0.787439 -4.23572
lowerneck -5.91886 -0.212017 2.41811
upperneck 8.35567 -0.732593 1.79963
head 3.76595 -0.226568 0.129812
rclavicle -4.41985e-015 6.36111e-015
rhumerus -32.2109 -6.8612 -88.2021
rradius 23.8888
rwrist 6.42839
rhand -19.0815 -7.92532
rfingers 7.12502
rthumb 7.22644 -37.7819
lclavicle -4.41985e-015 6.36111e-015
lhumerus -40.4327 15.6857 74.0497
lradius 21.2744
lwrist 12.968
lhand -17.3583 12.9591
lfingers 7.12502
lthumb 8.88962 42.7518
rfemur 15.3854 2.57981 25.4002
rtibia 29.906
rfoot 24.6707 -16.2499
rtoes 8.79562
lfemur -20.2027 12.8726 -22.8565
ltibia 30.7048
lfoot 0.649723 -3.67077
ltoes -21.041
550
root 10.8942 17.2167 -6.05891 500.813 -85.222 -501.039
lowerback 0.210713 1.13085 4.94578
upperback -0.19431 1.52265 -1.20408
thorax -0.156408 0.75375 -4.0182
lowerneck -5.91909 -0.198209 2.42612
upperneck 8.40257 -0.71903 1.82162
head 3.78273 -0.218317 0.136399
rclavicle 1.65954e-014 1.98785e-015
rhumerus -32.3384 -7.06088 -88.0861
rradius 23.8121
rwrist 6.41742
rhand -19.1193 -7.89365
rfingers 7.12502
rthumb 7.18995 -37.7515
lclavicle 1.65954e-014 1.98785e-015
lhumerus -40.2459 15.6667 74.1589
lradius 21.3338
lwrist 13.098
lhand -17.3489 12.9094
lfingers 7.12502
lthumb 8.89866 42.7018
rfemur 14.1224 2.9236 25.1808
rtibia 32.2343
rfoot 25.6174 -16.1983
rtoes 8.20935
lfemur -19.7082 12.9451 -23.0228
ltibia 30.7998
lfoot 0.504865 -3.82125
ltoes -21.4441
551
root 10.7513 17.2346 -6.06594 502.986 -85.4172 -503.245
lowerback 0.328245 1.08312 4.50087
upperback -0.215941 1.46283 -1.23383
thorax -0.261121 0.721307 -3.80098
lowerneck -5.90099 -0.180149 2.43859
upperneck 8.40612 -0.697465 1.83824
head 3.78055 -0.206761 0.140825
rclavicle 9.92681e-015 1.23246e-014
rhumerus -32.4234 -7.23532 -87.9883
rradius 23.7165
rwrist 6.38362
rhand -19.1824 -7.85416
rfingers 7.12502
rthumb 7.12905 -37.7141
lclavicle 9.92681e-015 1.23246e-014
lhumerus -40.0136 15.5807 74.3258
lradius 21.436
lwrist 13.2893
lhand -17.3372 12.8686
lfingers 7.12502
lthumb 8.90997 42.6604
rfemur 12.8424 3.29927 24.9747
rtibia 34.4889
rfoot 26.1884 -15.984
rtoes 7.50981
lfemur -19.2088 12.9405 -23.1792
ltibia 30.8614
lfoot 0.425632 -3.87565
ltoes -21.9462
552
root 10.612 17.2535 -6.07248 505.55 -85.603 -505.857
lowerback 0.457164 1.03752 4.061
upperback -0.219617 1.40457 -1.27005
thorax -0.352445 0.690721 -3.59312
lowerneck -5.86949 -0.15707 2.45505
upperneck 8.37803 -0.667288 1.84852
head 3.76454 -0.1915 0.14287
rclavicle -3.49737e-015 1.07344e-014
rhumerus -32.4671 -7.39809 -87.9032
rradius 23.6022
rwrist 6.35992
rhand -19.2615 -7.81124
rfingers 7.12502
rthumb 7.05272 -37.6737
lclavicle -3.49737e-015 1.07344e-014
lhumerus -39.7399 15.4144 74.5539
lradius 21.5824
lwrist 13.545
lhand -17.3491 12.8548
lfingers 7.12502
lthumb 8.89853 42.6471
rfemur 11.5643 3.67975 24.7399
rtibia 36.6517
rfoot 26.3066 -15.5772
rtoes 6.81585
lfemur -18.6817 12.8785 -23.3471
ltibia 30.8798
lfoot 0.392785 -3.86159
ltoes -22.5323
